STARTFONT 2.1
FONT -Monotype-Bembo-Bold-I-Normal--14-140-72-72-P-67-ISO8859-1
SIZE 14 72 72
FONTBOUNDINGBOX 19 16 -2 -3

STARTPROPERTIES 22
FOUNDRY "Monotype"
FAMILY_NAME "Bembo"
WEIGHT_NAME "Bold"
SLANT "I"
SETWIDTH_NAME "Normal"
ADD_STYLE_NAME ""
PIXEL_SIZE 14
POINT_SIZE 140
RESOLUTION_X 72
RESOLUTION_Y 72
SPACING "P"
AVERAGE_WIDTH 67
CHARSET_REGISTRY "ISO8859"
CHARSET_ENCODING "1"
FULL_NAME "Bembo-BoldItalic"
COPYRIGHT "Copyright (c) 1991 The Monotype Corporation plc."
WEIGHT 10
X_HEIGHT 6
QUAD_WIDTH 9
DEFAULT_CHAR 32
FONT_DESCENT 4
FONT_ASCENT 12
ENDPROPERTIES

CHARS 190

STARTCHAR space
ENCODING 32
SWIDTH 278 0
DWIDTH 4 0
BBX 1 1 0 0
BITMAP
00
ENDCHAR

STARTCHAR exclam
ENCODING 33
SWIDTH 323 0
DWIDTH 5 0
BBX 4 9 1 0
BITMAP
30
60
60
40
40
40
00
C0
C0
ENDCHAR

STARTCHAR quotedbl
ENCODING 34
SWIDTH 552 0
DWIDTH 8 0
BBX 6 5 2 4
BITMAP
C8
DC
D8
90
90
ENDCHAR

STARTCHAR numbersign
ENCODING 35
SWIDTH 668 0
DWIDTH 9 0
BBX 8 11 1 -2
BITMAP
33
33
33
FF
FF
66
FF
FF
64
4C
CC
ENDCHAR

STARTCHAR dollar
ENCODING 36
SWIDTH 469 0
DWIDTH 7 0
BBX 6 10 1 -1
BITMAP
38
74
74
70
30
38
28
A8
F0
40
ENDCHAR

STARTCHAR percent
ENCODING 37
SWIDTH 844 0
DWIDTH 12 0
BBX 10 9 1 0
BITMAP
6180
D300
B200
A400
C4C0
0940
1140
13C0
2180
ENDCHAR

STARTCHAR ampersand
ENCODING 38
SWIDTH 729 0
DWIDTH 10 0
BBX 10 9 1 0
BITMAP
3E00
6200
6000
3F40
4780
C500
C100
E300
3C00
ENDCHAR

STARTCHAR quoteright
ENCODING 39
SWIDTH 323 0
DWIDTH 5 0
BBX 3 4 2 5
BITMAP
60
60
40
80
ENDCHAR

STARTCHAR parenleft
ENCODING 40
SWIDTH 292 0
DWIDTH 4 0
BBX 5 12 1 -3
BITMAP
18
30
60
40
C0
C0
C0
80
80
80
40
40
ENDCHAR

STARTCHAR parenright
ENCODING 41
SWIDTH 292 0
DWIDTH 4 0
BBX 5 12 0 -3
BITMAP
20
10
10
10
18
18
10
10
30
20
40
80
ENDCHAR

STARTCHAR asterisk
ENCODING 42
SWIDTH 521 0
DWIDTH 7 0
BBX 7 6 2 3
BITMAP
08
88
78
1E
78
48
ENDCHAR

STARTCHAR plus
ENCODING 43
SWIDTH 667 0
DWIDTH 9 0
BBX 7 7 1 2
BITMAP
10
10
10
FE
10
10
10
ENDCHAR

STARTCHAR comma
ENCODING 44
SWIDTH 323 0
DWIDTH 5 0
BBX 3 4 0 -3
BITMAP
60
60
40
80
ENDCHAR

STARTCHAR minus
ENCODING 45
SWIDTH 667 0
DWIDTH 9 0
BBX 7 1 1 4
BITMAP
FE
ENDCHAR

STARTCHAR period
ENCODING 46
SWIDTH 323 0
DWIDTH 5 0
BBX 2 2 1 0
BITMAP
C0
C0
ENDCHAR

STARTCHAR slash
ENCODING 47
SWIDTH 531 0
DWIDTH 5 0
BBX 7 12 0 -3
BITMAP
06
04
0C
08
18
10
10
30
20
60
40
C0
ENDCHAR

STARTCHAR zero
ENCODING 48
SWIDTH 469 0
DWIDTH 7 0
BBX 6 9 1 0
BITMAP
38
6C
6C
CC
CC
C8
D8
D0
60
ENDCHAR

STARTCHAR one
ENCODING 49
SWIDTH 469 0
DWIDTH 7 0
BBX 5 9 1 0
BITMAP
18
30
F0
30
30
60
60
60
F0
ENDCHAR

STARTCHAR two
ENCODING 50
SWIDTH 469 0
DWIDTH 7 0
BBX 6 9 0 0
BITMAP
3C
4C
0C
0C
18
30
28
78
F8
ENDCHAR

STARTCHAR three
ENCODING 51
SWIDTH 469 0
DWIDTH 7 0
BBX 6 9 0 0
BITMAP
1C
2C
08
18
38
08
18
90
E0
ENDCHAR

STARTCHAR four
ENCODING 52
SWIDTH 469 0
DWIDTH 7 0
BBX 6 9 1 0
BITMAP
0C
18
38
78
58
FC
FC
30
30
ENDCHAR

STARTCHAR five
ENCODING 53
SWIDTH 469 0
DWIDTH 7 0
BBX 6 9 1 0
BITMAP
3C
3C
20
38
78
08
08
90
E0
ENDCHAR

STARTCHAR six
ENCODING 54
SWIDTH 469 0
DWIDTH 7 0
BBX 6 9 1 0
BITMAP
0C
10
20
60
F8
C8
D8
D8
70
ENDCHAR

STARTCHAR seven
ENCODING 55
SWIDTH 469 0
DWIDTH 7 0
BBX 6 9 1 0
BITMAP
7C
F8
88
18
10
30
20
60
C0
ENDCHAR

STARTCHAR eight
ENCODING 56
SWIDTH 469 0
DWIDTH 7 0
BBX 6 9 1 0
BITMAP
38
6C
44
68
30
58
88
98
70
ENDCHAR

STARTCHAR nine
ENCODING 57
SWIDTH 469 0
DWIDTH 7 0
BBX 6 9 1 0
BITMAP
1C
24
64
6C
7C
18
10
20
C0
ENDCHAR

STARTCHAR colon
ENCODING 58
SWIDTH 323 0
DWIDTH 5 0
BBX 3 6 1 0
BITMAP
60
60
00
00
C0
C0
ENDCHAR

STARTCHAR semicolon
ENCODING 59
SWIDTH 323 0
DWIDTH 5 0
BBX 3 8 0 -2
BITMAP
20
20
00
00
60
60
40
80
ENDCHAR

STARTCHAR less
ENCODING 60
SWIDTH 667 0
DWIDTH 9 0
BBX 7 8 1 1
BITMAP
02
0E
38
E0
E0
38
0E
02
ENDCHAR

STARTCHAR equal
ENCODING 61
SWIDTH 667 0
DWIDTH 9 0
BBX 7 4 1 2
BITMAP
FE
00
00
FE
ENDCHAR

STARTCHAR greater
ENCODING 62
SWIDTH 667 0
DWIDTH 9 0
BBX 7 8 1 1
BITMAP
80
E0
3C
06
06
1C
E0
80
ENDCHAR

STARTCHAR question
ENCODING 63
SWIDTH 427 0
DWIDTH 6 0
BBX 5 9 1 0
BITMAP
70
78
08
30
70
40
00
C0
C0
ENDCHAR

STARTCHAR at
ENCODING 64
SWIDTH 833 0
DWIDTH 12 0
BBX 12 12 0 -3
BITMAP
0F80
3040
4020
47A0
8920
9920
9320
9640
9B90
4020
20C0
1F80
ENDCHAR

STARTCHAR A
ENCODING 65
SWIDTH 719 0
DWIDTH 10 0
BBX 9 9 0 0
BITMAP
0300
0700
0F00
1B00
1F00
2300
6300
C300
E780
ENDCHAR

STARTCHAR B
ENCODING 66
SWIDTH 656 0
DWIDTH 9 0
BBX 9 9 0 0
BITMAP
7F00
3180
3180
3F00
3300
2100
6100
6300
FE00
ENDCHAR

STARTCHAR C
ENCODING 67
SWIDTH 729 0
DWIDTH 10 0
BBX 9 9 1 0
BITMAP
1F80
3180
6080
C000
C000
C000
C000
6100
3F00
ENDCHAR

STARTCHAR D
ENCODING 68
SWIDTH 802 0
DWIDTH 11 0
BBX 11 9 0 0
BITMAP
7F80
18C0
3060
3060
3060
3060
20C0
6180
FF00
ENDCHAR

STARTCHAR E
ENCODING 69
SWIDTH 656 0
DWIDTH 9 0
BBX 9 9 0 0
BITMAP
7F80
1880
3000
3100
3E00
3200
6000
6180
FF00
ENDCHAR

STARTCHAR F
ENCODING 70
SWIDTH 604 0
DWIDTH 8 0
BBX 9 9 0 0
BITMAP
7F80
1880
3800
3100
3F00
3200
3000
6000
F800
ENDCHAR

STARTCHAR G
ENCODING 71
SWIDTH 802 0
DWIDTH 11 0
BBX 10 9 1 0
BITMAP
1F80
3080
6080
C000
C000
C3C0
C180
6180
3F80
ENDCHAR

STARTCHAR H
ENCODING 72
SWIDTH 802 0
DWIDTH 11 0
BBX 12 9 0 0
BITMAP
7CF0
1860
10C0
3FC0
30C0
30C0
20C0
6180
F3E0
ENDCHAR

STARTCHAR I
ENCODING 73
SWIDTH 375 0
DWIDTH 5 0
BBX 6 9 0 0
BITMAP
7C
18
10
30
30
30
20
60
F8
ENDCHAR

STARTCHAR J
ENCODING 74
SWIDTH 354 0
DWIDTH 5 0
BBX 8 12 -1 -3
BITMAP
0F
06
04
04
0C
0C
0C
0C
08
18
D8
F0
ENDCHAR

STARTCHAR K
ENCODING 75
SWIDTH 740 0
DWIDTH 10 0
BBX 11 9 0 0
BITMAP
7DE0
18C0
3B00
3C00
3C00
3600
2700
6380
F1C0
ENDCHAR

STARTCHAR L
ENCODING 76
SWIDTH 604 0
DWIDTH 8 0
BBX 9 9 0 0
BITMAP
7C00
1800
3000
3000
3000
3000
2000
6180
FF00
ENDCHAR

STARTCHAR M
ENCODING 77
SWIDTH 896 0
DWIDTH 13 0
BBX 13 9 0 0
BITMAP
3838
1870
1C70
2CE0
2D60
2D60
2E60
4460
E4F0
ENDCHAR

STARTCHAR N
ENCODING 78
SWIDTH 771 0
DWIDTH 11 0
BBX 11 9 0 0
BITMAP
70E0
3840
3C40
2C40
2640
47C0
4380
4180
E080
ENDCHAR

STARTCHAR O
ENCODING 79
SWIDTH 823 0
DWIDTH 12 0
BBX 10 9 1 0
BITMAP
1F00
7180
60C0
C0C0
C0C0
C0C0
C180
6380
3E00
ENDCHAR

STARTCHAR P
ENCODING 80
SWIDTH 635 0
DWIDTH 9 0
BBX 9 9 0 0
BITMAP
7F00
1980
3180
3180
3380
3600
2000
6000
F800
ENDCHAR

STARTCHAR Q
ENCODING 81
SWIDTH 823 0
DWIDTH 12 0
BBX 10 11 1 -2
BITMAP
1F00
7180
60C0
C0C0
C0C0
C0C0
C180
6380
3E00
0E00
03C0
ENDCHAR

STARTCHAR R
ENCODING 82
SWIDTH 688 0
DWIDTH 10 0
BBX 9 9 0 0
BITMAP
3F00
1380
3180
3300
3E00
3600
2600
6300
F180
ENDCHAR

STARTCHAR S
ENCODING 83
SWIDTH 521 0
DWIDTH 7 0
BBX 7 9 0 0
BITMAP
1E
26
22
30
38
0C
84
C4
78
ENDCHAR

STARTCHAR T
ENCODING 84
SWIDTH 698 0
DWIDTH 10 0
BBX 9 9 1 0
BITMAP
FF80
8C80
1800
1800
1800
1800
3800
3000
7C00
ENDCHAR

STARTCHAR U
ENCODING 85
SWIDTH 750 0
DWIDTH 11 0
BBX 10 9 1 0
BITMAP
F1C0
6080
6100
6100
4100
C100
C100
4200
3C00
ENDCHAR

STARTCHAR V
ENCODING 86
SWIDTH 677 0
DWIDTH 9 0
BBX 9 9 2 0
BITMAP
F380
6180
6300
6600
6400
6800
7000
6000
4000
ENDCHAR

STARTCHAR W
ENCODING 87
SWIDTH 1063 0
DWIDTH 15 0
BBX 15 9 2 0
BITMAP
F3DE
630C
6318
6710
6F20
6B40
5380
6300
4300
ENDCHAR

STARTCHAR X
ENCODING 88
SWIDTH 760 0
DWIDTH 11 0
BBX 11 9 0 0
BITMAP
3CE0
18C0
0D00
0E00
0600
0F00
3380
6180
F3C0
ENDCHAR

STARTCHAR Y
ENCODING 89
SWIDTH 667 0
DWIDTH 9 0
BBX 9 9 1 0
BITMAP
F380
6100
7200
3400
3C00
1800
1000
3000
7C00
ENDCHAR

STARTCHAR Z
ENCODING 90
SWIDTH 667 0
DWIDTH 9 0
BBX 10 9 0 0
BITMAP
3FC0
2380
0700
0E00
1C00
3800
7080
E180
FF00
ENDCHAR

STARTCHAR bracketleft
ENCODING 91
SWIDTH 365 0
DWIDTH 5 0
BBX 6 12 1 -3
BITMAP
3C
30
30
20
60
60
60
60
C0
C0
C0
E0
ENDCHAR

STARTCHAR backslash
ENCODING 92
SWIDTH 302 0
DWIDTH 4 0
BBX 3 9 1 0
BITMAP
C0
C0
C0
60
60
60
60
60
60
ENDCHAR

STARTCHAR bracketright
ENCODING 93
SWIDTH 365 0
DWIDTH 5 0
BBX 6 12 0 -3
BITMAP
3C
0C
08
18
18
18
18
10
30
30
30
F0
ENDCHAR

STARTCHAR asciicircum
ENCODING 94
SWIDTH 573 0
DWIDTH 8 0
BBX 6 5 2 4
BITMAP
30
30
48
48
84
ENDCHAR

STARTCHAR underscore
ENCODING 95
SWIDTH 500 0
DWIDTH 7 0
BBX 7 1 0 -3
BITMAP
FE
ENDCHAR

STARTCHAR quoteleft
ENCODING 96
SWIDTH 323 0
DWIDTH 5 0
BBX 3 4 2 5
BITMAP
60
80
C0
C0
ENDCHAR

STARTCHAR a
ENCODING 97
SWIDTH 458 0
DWIDTH 6 0
BBX 6 6 0 0
BITMAP
38
48
98
98
FC
D8
ENDCHAR

STARTCHAR b
ENCODING 98
SWIDTH 448 0
DWIDTH 6 0
BBX 5 9 1 0
BITMAP
60
60
60
58
78
D8
D8
90
E0
ENDCHAR

STARTCHAR c
ENCODING 99
SWIDTH 333 0
DWIDTH 5 0
BBX 4 6 0 0
BITMAP
30
50
C0
C0
D0
E0
ENDCHAR

STARTCHAR d
ENCODING 100
SWIDTH 448 0
DWIDTH 6 0
BBX 6 9 0 0
BITMAP
0C
0C
0C
38
58
C8
D8
D8
F0
ENDCHAR

STARTCHAR e
ENCODING 101
SWIDTH 375 0
DWIDTH 5 0
BBX 5 6 1 0
BITMAP
38
58
F0
C0
C8
F0
ENDCHAR

STARTCHAR f
ENCODING 102
SWIDTH 271 0
DWIDTH 4 0
BBX 9 12 -2 -3
BITMAP
0380
0580
0C00
1E00
0C00
0C00
0800
0800
1800
1800
D000
E000
ENDCHAR

STARTCHAR g
ENCODING 103
SWIDTH 438 0
DWIDTH 6 0
BBX 7 9 0 -3
BITMAP
1E
36
26
24
18
30
3C
C4
FC
ENDCHAR

STARTCHAR h
ENCODING 104
SWIDTH 500 0
DWIDTH 7 0
BBX 7 9 0 0
BITMAP
20
60
60
5C
7C
68
C8
DA
DC
ENDCHAR

STARTCHAR i
ENCODING 105
SWIDTH 292 0
DWIDTH 4 0
BBX 4 9 0 0
BITMAP
30
20
00
60
E0
40
40
D0
E0
ENDCHAR

STARTCHAR j
ENCODING 106
SWIDTH 271 0
DWIDTH 4 0
BBX 6 12 -1 -3
BITMAP
0C
04
00
08
38
08
18
18
18
10
F0
E0
ENDCHAR

STARTCHAR k
ENCODING 107
SWIDTH 500 0
DWIDTH 7 0
BBX 7 9 1 0
BITMAP
20
60
60
6C
5C
6C
F8
F2
DC
ENDCHAR

STARTCHAR l
ENCODING 108
SWIDTH 271 0
DWIDTH 4 0
BBX 3 9 1 0
BITMAP
60
60
60
40
40
40
C0
E0
C0
ENDCHAR

STARTCHAR m
ENCODING 109
SWIDTH 750 0
DWIDTH 11 0
BBX 10 6 0 0
BITMAP
7D80
FE80
6D80
4D80
CDC0
C980
ENDCHAR

STARTCHAR n
ENCODING 110
SWIDTH 510 0
DWIDTH 7 0
BBX 7 6 0 0
BITMAP
6C
FC
6C
68
4A
CC
ENDCHAR

STARTCHAR o
ENCODING 111
SWIDTH 448 0
DWIDTH 6 0
BBX 5 6 1 0
BITMAP
38
58
C8
C8
D0
E0
ENDCHAR

STARTCHAR p
ENCODING 112
SWIDTH 490 0
DWIDTH 7 0
BBX 7 9 0 -3
BITMAP
16
7A
32
32
36
3C
20
60
F0
ENDCHAR

STARTCHAR q
ENCODING 113
SWIDTH 448 0
DWIDTH 6 0
BBX 5 9 0 -3
BITMAP
38
58
98
98
F8
D0
30
30
78
ENDCHAR

STARTCHAR r
ENCODING 114
SWIDTH 333 0
DWIDTH 5 0
BBX 5 6 0 0
BITMAP
58
D0
60
60
40
C0
ENDCHAR

STARTCHAR s
ENCODING 115
SWIDTH 344 0
DWIDTH 5 0
BBX 4 6 0 0
BITMAP
30
50
60
30
D0
E0
ENDCHAR

STARTCHAR t
ENCODING 116
SWIDTH 302 0
DWIDTH 4 0
BBX 4 7 1 0
BITMAP
20
F0
40
C0
C0
E0
C0
ENDCHAR

STARTCHAR u
ENCODING 117
SWIDTH 500 0
DWIDTH 7 0
BBX 7 6 0 0
BITMAP
6C
EC
48
58
DA
FC
ENDCHAR

STARTCHAR v
ENCODING 118
SWIDTH 427 0
DWIDTH 6 0
BBX 6 6 0 0
BITMAP
68
EC
48
48
D0
60
ENDCHAR

STARTCHAR w
ENCODING 119
SWIDTH 667 0
DWIDTH 9 0
BBX 9 6 0 0
BITMAP
6D80
EC80
4C80
5900
7A00
EC00
ENDCHAR

STARTCHAR x
ENCODING 120
SWIDTH 500 0
DWIDTH 7 0
BBX 6 6 0 0
BITMAP
64
6C
30
30
DC
C8
ENDCHAR

STARTCHAR y
ENCODING 121
SWIDTH 458 0
DWIDTH 6 0
BBX 7 9 0 -3
BITMAP
66
B6
34
38
38
30
30
60
F0
ENDCHAR

STARTCHAR z
ENCODING 122
SWIDTH 490 0
DWIDTH 7 0
BBX 6 6 0 0
BITMAP
74
3C
18
60
F0
FC
ENDCHAR

STARTCHAR braceleft
ENCODING 123
SWIDTH 344 0
DWIDTH 5 0
BBX 6 12 1 -3
BITMAP
0C
10
30
30
20
E0
40
40
C0
C0
80
40
ENDCHAR

STARTCHAR bar
ENCODING 124
SWIDTH 566 0
DWIDTH 9 0
BBX 5 12 2 -3
BITMAP
18
18
30
30
30
30
60
60
60
60
C0
C0
ENDCHAR

STARTCHAR braceright
ENCODING 125
SWIDTH 344 0
DWIDTH 5 0
BBX 6 12 0 -3
BITMAP
18
0C
0C
18
18
0C
10
30
30
20
20
C0
ENDCHAR

STARTCHAR asciitilde
ENCODING 126
SWIDTH 573 0
DWIDTH 8 0
BBX 7 3 1 5
BITMAP
62
FC
9C
ENDCHAR

STARTCHAR exclamdown
ENCODING 161
SWIDTH 323 0
DWIDTH 5 0
BBX 4 9 0 -3
BITMAP
20
30
00
60
40
40
40
C0
C0
ENDCHAR

STARTCHAR cent
ENCODING 162
SWIDTH 333 0
DWIDTH 5 0
BBX 5 12 0 -3
BITMAP
08
10
10
30
60
E0
E0
F0
E0
40
40
C0
ENDCHAR

STARTCHAR sterling
ENCODING 163
SWIDTH 760 0
DWIDTH 11 0
BBX 11 12 0 -3
BITMAP
00E0
0360
0200
0600
0E00
0C00
0C00
1800
7E00
1180
7D80
CF00
ENDCHAR

STARTCHAR currency
ENCODING 164
SWIDTH 667 0
DWIDTH 9 0
BBX 7 7 2 1
BITMAP
7C
FE
C6
C6
C6
FC
7E
ENDCHAR

STARTCHAR yen
ENCODING 165
SWIDTH 500 0
DWIDTH 7 0
BBX 8 9 0 0
BITMAP
7B
32
7F
FE
30
30
30
70
F8
ENDCHAR

STARTCHAR brokenbar
ENCODING 166
SWIDTH 566 0
DWIDTH 9 0
BBX 5 12 2 -3
BITMAP
18
18
30
30
30
00
00
60
60
60
C0
C0
ENDCHAR

STARTCHAR section
ENCODING 167
SWIDTH 448 0
DWIDTH 6 0
BBX 8 12 0 -3
BITMAP
07
19
18
38
28
2C
34
14
14
14
D8
E0
ENDCHAR

STARTCHAR dieresis
ENCODING 168
SWIDTH 333 0
DWIDTH 5 0
BBX 5 2 1 7
BITMAP
D8
D8
ENDCHAR

STARTCHAR copyright
ENCODING 169
SWIDTH 750 0
DWIDTH 11 0
BBX 10 9 0 0
BITMAP
1E00
7F80
7180
B040
B040
B940
5E80
6180
1E00
ENDCHAR

STARTCHAR ordfeminine
ENCODING 170
SWIDTH 354 0
DWIDTH 5 0
BBX 4 4 2 5
BITMAP
70
A0
A0
F0
ENDCHAR

STARTCHAR guillemotleft
ENCODING 171
SWIDTH 427 0
DWIDTH 6 0
BBX 6 5 0 1
BITMAP
48
48
6C
58
B0
ENDCHAR

STARTCHAR logicalnot
ENCODING 172
SWIDTH 667 0
DWIDTH 9 0
BBX 7 4 1 2
BITMAP
FE
02
02
02
ENDCHAR

STARTCHAR hyphen
ENCODING 173
SWIDTH 417 0
DWIDTH 6 0
BBX 5 2 0 2
BITMAP
F8
F8
ENDCHAR

STARTCHAR registered
ENCODING 174
SWIDTH 750 0
DWIDTH 11 0
BBX 10 9 0 0
BITMAP
1E00
7F80
5B80
9F40
9E40
9A40
7F80
6180
1E00
ENDCHAR

STARTCHAR macron
ENCODING 175
SWIDTH 333 0
DWIDTH 5 0
BBX 5 1 1 8
BITMAP
F8
ENDCHAR

STARTCHAR degree
ENCODING 176
SWIDTH 396 0
DWIDTH 6 0
BBX 5 4 1 5
BITMAP
70
88
88
70
ENDCHAR

STARTCHAR plusminus
ENCODING 177
SWIDTH 668 0
DWIDTH 9 0
BBX 7 10 1 -1
BITMAP
10
10
10
FE
10
10
10
10
00
FE
ENDCHAR

STARTCHAR twosuperior
ENCODING 178
SWIDTH 292 0
DWIDTH 4 0
BBX 4 6 -1 3
BITMAP
60
50
20
20
60
E0
ENDCHAR

STARTCHAR threesuperior
ENCODING 179
SWIDTH 292 0
DWIDTH 4 0
BBX 3 6 -1 3
BITMAP
60
A0
20
60
20
C0
ENDCHAR

STARTCHAR acute
ENCODING 180
SWIDTH 333 0
DWIDTH 5 0
BBX 3 2 2 7
BITMAP
60
80
ENDCHAR

STARTCHAR mu
ENCODING 181
SWIDTH 573 0
DWIDTH 8 0
BBX 9 9 0 -3
BITMAP
1B00
3300
3300
3600
6680
7F00
4000
C000
8000
ENDCHAR

STARTCHAR paragraph
ENCODING 182
SWIDTH 542 0
DWIDTH 7 0
BBX 9 12 0 -3
BITMAP
3F80
7A00
FA00
FA00
F400
7400
1400
2800
2800
2800
5000
5000
ENDCHAR

STARTCHAR periodcentered
ENCODING 183
SWIDTH 323 0
DWIDTH 5 0
BBX 2 2 2 4
BITMAP
C0
C0
ENDCHAR

STARTCHAR cedilla
ENCODING 184
SWIDTH 333 0
DWIDTH 5 0
BBX 2 3 0 -3
BITMAP
40
40
C0
ENDCHAR

STARTCHAR onesuperior
ENCODING 185
SWIDTH 292 0
DWIDTH 4 0
BBX 3 6 -2 3
BITMAP
20
C0
40
40
40
C0
ENDCHAR

STARTCHAR ordmasculine
ENCODING 186
SWIDTH 333 0
DWIDTH 5 0
BBX 3 4 2 5
BITMAP
60
A0
A0
C0
ENDCHAR

STARTCHAR guillemotright
ENCODING 187
SWIDTH 427 0
DWIDTH 6 0
BBX 6 5 1 1
BITMAP
2C
48
D0
50
50
ENDCHAR

STARTCHAR onequarter
ENCODING 188
SWIDTH 854 0
DWIDTH 11 0
BBX 10 9 2 0
BITMAP
20C0
C080
4100
4340
4240
C4C0
0D40
09C0
1080
ENDCHAR

STARTCHAR onehalf
ENCODING 189
SWIDTH 844 0
DWIDTH 11 0
BBX 11 9 2 0
BITMAP
20C0
C080
4100
43C0
42A0
C440
0C40
08C0
11C0
ENDCHAR

STARTCHAR threequarters
ENCODING 190
SWIDTH 844 0
DWIDTH 11 0
BBX 10 9 2 0
BITMAP
60C0
A080
2100
6340
2240
C4C0
0D40
09C0
1080
ENDCHAR

STARTCHAR questiondown
ENCODING 191
SWIDTH 427 0
DWIDTH 6 0
BBX 5 10 1 -3
BITMAP
18
10
00
10
60
E0
C0
80
F0
70
ENDCHAR

STARTCHAR Agrave
ENCODING 192
SWIDTH 719 0
DWIDTH 10 0
BBX 9 12 0 0
BITMAP
0300
0180
0000
0300
0700
0F00
1B00
1F00
2300
6300
C300
E780
ENDCHAR

STARTCHAR Aacute
ENCODING 193
SWIDTH 719 0
DWIDTH 10 0
BBX 9 12 0 0
BITMAP
0180
0200
0000
0300
0700
0F00
1B00
1F00
2300
6300
C300
E780
ENDCHAR

STARTCHAR Acircumflex
ENCODING 194
SWIDTH 719 0
DWIDTH 10 0
BBX 9 12 0 0
BITMAP
0380
0680
0000
0300
0700
0F00
1B00
1F00
2300
6300
C300
E780
ENDCHAR

STARTCHAR Atilde
ENCODING 195
SWIDTH 719 0
DWIDTH 10 0
BBX 10 12 0 0
BITMAP
07C0
0780
0000
0300
0700
0F00
1B00
1F00
2300
6300
C300
E780
ENDCHAR

STARTCHAR Adieresis
ENCODING 196
SWIDTH 719 0
DWIDTH 10 0
BBX 10 12 0 0
BITMAP
06C0
06C0
0000
0300
0700
0F00
1B00
1F00
2300
6300
C300
E780
ENDCHAR

STARTCHAR Aring
ENCODING 197
SWIDTH 719 0
DWIDTH 10 0
BBX 9 13 0 0
BITMAP
0380
0280
0380
0000
0300
0700
0F00
1B00
1F00
2300
6300
C300
E780
ENDCHAR

STARTCHAR AE
ENCODING 198
SWIDTH 958 0
DWIDTH 13 0
BBX 14 9 0 0
BITMAP
03FC
03C4
0780
0988
0FF8
1190
2100
430C
E7F8
ENDCHAR

STARTCHAR Ccedilla
ENCODING 199
SWIDTH 729 0
DWIDTH 10 0
BBX 9 12 1 -3
BITMAP
1F80
3180
6080
C000
C000
C000
C000
6100
3F00
1000
1000
3000
ENDCHAR

STARTCHAR Egrave
ENCODING 200
SWIDTH 656 0
DWIDTH 9 0
BBX 9 12 0 0
BITMAP
0600
0300
0000
7F80
1880
3000
3100
3E00
3200
6000
6180
FF00
ENDCHAR

STARTCHAR Eacute
ENCODING 201
SWIDTH 656 0
DWIDTH 9 0
BBX 9 12 0 0
BITMAP
0180
0200
0000
7F80
1880
3000
3100
3E00
3200
6000
6180
FF00
ENDCHAR

STARTCHAR Ecircumflex
ENCODING 202
SWIDTH 656 0
DWIDTH 9 0
BBX 9 12 0 0
BITMAP
0380
0680
0000
7F80
1880
3000
3100
3E00
3200
6000
6180
FF00
ENDCHAR

STARTCHAR Edieresis
ENCODING 203
SWIDTH 656 0
DWIDTH 9 0
BBX 9 12 0 0
BITMAP
0D80
0D80
0000
7F80
1880
3000
3100
3E00
3200
6000
6180
FF00
ENDCHAR

STARTCHAR Igrave
ENCODING 204
SWIDTH 375 0
DWIDTH 5 0
BBX 6 12 0 0
BITMAP
18
0C
00
7C
18
10
30
30
30
20
60
F8
ENDCHAR

STARTCHAR Iacute
ENCODING 205
SWIDTH 375 0
DWIDTH 5 0
BBX 7 12 0 0
BITMAP
06
08
00
7C
18
10
30
30
30
20
60
F8
ENDCHAR

STARTCHAR Icircumflex
ENCODING 206
SWIDTH 375 0
DWIDTH 5 0
BBX 7 12 0 0
BITMAP
0E
1A
00
7C
18
10
30
30
30
20
60
F8
ENDCHAR

STARTCHAR Idieresis
ENCODING 207
SWIDTH 375 0
DWIDTH 5 0
BBX 8 12 0 0
BITMAP
1B
1B
00
7C
18
10
30
30
30
20
60
F8
ENDCHAR

STARTCHAR Eth
ENCODING 208
SWIDTH 802 0
DWIDTH 11 0
BBX 11 9 0 0
BITMAP
7F80
10C0
3060
3060
FC60
3060
20C0
6180
FF00
ENDCHAR

STARTCHAR Ntilde
ENCODING 209
SWIDTH 771 0
DWIDTH 11 0
BBX 11 12 0 0
BITMAP
07C0
0780
0000
70E0
3840
3C40
2C40
2640
47C0
4380
4180
E080
ENDCHAR

STARTCHAR Ograve
ENCODING 210
SWIDTH 823 0
DWIDTH 12 0
BBX 10 12 1 0
BITMAP
0600
0300
0000
1F00
7180
60C0
C0C0
C0C0
C0C0
C180
6380
3E00
ENDCHAR

STARTCHAR Oacute
ENCODING 211
SWIDTH 823 0
DWIDTH 12 0
BBX 10 12 1 0
BITMAP
0180
0200
0000
1F00
7180
60C0
C0C0
C0C0
C0C0
C180
6380
3E00
ENDCHAR

STARTCHAR Ocircumflex
ENCODING 212
SWIDTH 823 0
DWIDTH 12 0
BBX 10 12 1 0
BITMAP
0380
0680
0000
1F00
7180
60C0
C0C0
C0C0
C0C0
C180
6380
3E00
ENDCHAR

STARTCHAR Otilde
ENCODING 213
SWIDTH 823 0
DWIDTH 12 0
BBX 10 12 1 0
BITMAP
07C0
0780
0000
1F00
7180
60C0
C0C0
C0C0
C0C0
C180
6380
3E00
ENDCHAR

STARTCHAR Odieresis
ENCODING 214
SWIDTH 823 0
DWIDTH 12 0
BBX 10 12 1 0
BITMAP
06C0
06C0
0000
1F00
7180
60C0
C0C0
C0C0
C0C0
C180
6380
3E00
ENDCHAR

STARTCHAR multiply
ENCODING 215
SWIDTH 667 0
DWIDTH 9 0
BBX 7 8 1 1
BITMAP
82
C6
6C
38
38
6C
C6
82
ENDCHAR

STARTCHAR Oslash
ENCODING 216
SWIDTH 823 0
DWIDTH 12 0
BBX 10 9 1 0
BITMAP
1FC0
7180
63C0
C2C0
C4C0
C8C0
D180
6380
7E00
ENDCHAR

STARTCHAR Ugrave
ENCODING 217
SWIDTH 750 0
DWIDTH 11 0
BBX 10 12 1 0
BITMAP
0600
0300
0000
F1C0
6080
6100
6100
4100
C100
C100
4200
3C00
ENDCHAR

STARTCHAR Uacute
ENCODING 218
SWIDTH 750 0
DWIDTH 11 0
BBX 10 12 1 0
BITMAP
0300
0400
0000
F1C0
6080
6100
6100
4100
C100
C100
4200
3C00
ENDCHAR

STARTCHAR Ucircumflex
ENCODING 219
SWIDTH 750 0
DWIDTH 11 0
BBX 10 12 1 0
BITMAP
0700
0D00
0000
F1C0
6080
6100
6100
4100
C100
C100
4200
3C00
ENDCHAR

STARTCHAR Udieresis
ENCODING 220
SWIDTH 750 0
DWIDTH 11 0
BBX 10 12 1 0
BITMAP
0D80
0D80
0000
F1C0
6080
6100
6100
4100
C100
C100
4200
3C00
ENDCHAR

STARTCHAR Yacute
ENCODING 221
SWIDTH 667 0
DWIDTH 9 0
BBX 9 12 1 0
BITMAP
0300
0400
0000
F380
6100
7200
3400
3C00
1800
1000
3000
7C00
ENDCHAR

STARTCHAR Thorn
ENCODING 222
SWIDTH 635 0
DWIDTH 9 0
BBX 9 9 0 0
BITMAP
7C00
1800
3F00
3180
3180
3300
2E00
6000
F800
ENDCHAR

STARTCHAR germandbls
ENCODING 223
SWIDTH 490 0
DWIDTH 7 0
BBX 9 12 -2 -3
BITMAP
0380
0480
0C80
0F00
0D00
0980
0980
1900
1E00
1000
D000
E000
ENDCHAR

STARTCHAR agrave
ENCODING 224
SWIDTH 458 0
DWIDTH 6 0
BBX 6 9 0 0
BITMAP
30
18
00
38
48
98
98
FC
D8
ENDCHAR

STARTCHAR aacute
ENCODING 225
SWIDTH 458 0
DWIDTH 6 0
BBX 6 9 0 0
BITMAP
0C
10
00
38
48
98
98
FC
D8
ENDCHAR

STARTCHAR acircumflex
ENCODING 226
SWIDTH 458 0
DWIDTH 6 0
BBX 6 9 0 0
BITMAP
1C
34
00
38
48
98
98
FC
D8
ENDCHAR

STARTCHAR atilde
ENCODING 227
SWIDTH 458 0
DWIDTH 6 0
BBX 6 9 0 0
BITMAP
7C
78
00
38
48
98
98
FC
D8
ENDCHAR

STARTCHAR adieresis
ENCODING 228
SWIDTH 458 0
DWIDTH 6 0
BBX 6 9 0 0
BITMAP
6C
6C
00
38
48
98
98
FC
D8
ENDCHAR

STARTCHAR aring
ENCODING 229
SWIDTH 458 0
DWIDTH 6 0
BBX 6 10 0 0
BITMAP
38
28
38
00
38
48
98
98
FC
D8
ENDCHAR

STARTCHAR ae
ENCODING 230
SWIDTH 615 0
DWIDTH 9 0
BBX 8 6 0 0
BITMAP
3F
49
4E
98
99
EE
ENDCHAR

STARTCHAR ccedilla
ENCODING 231
SWIDTH 333 0
DWIDTH 5 0
BBX 4 9 0 -3
BITMAP
30
50
C0
C0
D0
E0
40
40
C0
ENDCHAR

STARTCHAR egrave
ENCODING 232
SWIDTH 375 0
DWIDTH 5 0
BBX 5 9 1 0
BITMAP
30
18
00
38
58
F0
C0
C8
F0
ENDCHAR

STARTCHAR eacute
ENCODING 233
SWIDTH 375 0
DWIDTH 5 0
BBX 5 9 1 0
BITMAP
18
20
00
38
58
F0
C0
C8
F0
ENDCHAR

STARTCHAR ecircumflex
ENCODING 234
SWIDTH 375 0
DWIDTH 5 0
BBX 5 9 1 0
BITMAP
38
68
00
38
58
F0
C0
C8
F0
ENDCHAR

STARTCHAR edieresis
ENCODING 235
SWIDTH 375 0
DWIDTH 5 0
BBX 6 9 1 0
BITMAP
6C
6C
00
38
58
F0
C0
C8
F0
ENDCHAR

STARTCHAR igrave
ENCODING 236
SWIDTH 292 0
DWIDTH 4 0
BBX 4 9 0 0
BITMAP
60
30
00
60
E0
40
40
D0
E0
ENDCHAR

STARTCHAR iacute
ENCODING 237
SWIDTH 292 0
DWIDTH 4 0
BBX 5 9 0 0
BITMAP
18
20
00
60
E0
40
40
D0
E0
ENDCHAR

STARTCHAR icircumflex
ENCODING 238
SWIDTH 292 0
DWIDTH 4 0
BBX 4 9 0 0
BITMAP
70
D0
00
60
E0
40
40
D0
E0
ENDCHAR

STARTCHAR idieresis
ENCODING 239
SWIDTH 292 0
DWIDTH 4 0
BBX 5 9 0 0
BITMAP
D8
D8
00
60
E0
40
40
D0
E0
ENDCHAR

STARTCHAR eth
ENCODING 240
SWIDTH 417 0
DWIDTH 6 0
BBX 6 9 0 0
BITMAP
1C
38
0C
3C
4C
CC
C8
D8
E0
ENDCHAR

STARTCHAR ntilde
ENCODING 241
SWIDTH 510 0
DWIDTH 7 0
BBX 7 9 0 0
BITMAP
3E
3C
00
6C
FC
6C
68
4A
CC
ENDCHAR

STARTCHAR ograve
ENCODING 242
SWIDTH 448 0
DWIDTH 6 0
BBX 5 9 1 0
BITMAP
30
18
00
38
58
C8
C8
D0
E0
ENDCHAR

STARTCHAR oacute
ENCODING 243
SWIDTH 448 0
DWIDTH 6 0
BBX 6 9 1 0
BITMAP
0C
10
00
38
58
C8
C8
D0
E0
ENDCHAR

STARTCHAR ocircumflex
ENCODING 244
SWIDTH 448 0
DWIDTH 6 0
BBX 5 9 1 0
BITMAP
38
68
00
38
58
C8
C8
D0
E0
ENDCHAR

STARTCHAR otilde
ENCODING 245
SWIDTH 448 0
DWIDTH 6 0
BBX 6 9 1 0
BITMAP
7C
78
00
38
58
C8
C8
D0
E0
ENDCHAR

STARTCHAR odieresis
ENCODING 246
SWIDTH 448 0
DWIDTH 6 0
BBX 6 9 1 0
BITMAP
6C
6C
00
38
58
C8
C8
D0
E0
ENDCHAR

STARTCHAR divide
ENCODING 247
SWIDTH 668 0
DWIDTH 9 0
BBX 7 7 1 1
BITMAP
10
10
00
FE
00
10
10
ENDCHAR

STARTCHAR oslash
ENCODING 248
SWIDTH 448 0
DWIDTH 6 0
BBX 6 6 1 0
BITMAP
3C
58
D8
E8
D0
E0
ENDCHAR

STARTCHAR ugrave
ENCODING 249
SWIDTH 500 0
DWIDTH 7 0
BBX 7 9 0 0
BITMAP
18
0C
00
6C
EC
48
58
DA
FC
ENDCHAR

STARTCHAR uacute
ENCODING 250
SWIDTH 500 0
DWIDTH 7 0
BBX 7 9 0 0
BITMAP
0C
10
00
6C
EC
48
58
DA
FC
ENDCHAR

STARTCHAR ucircumflex
ENCODING 251
SWIDTH 500 0
DWIDTH 7 0
BBX 7 9 0 0
BITMAP
1C
34
00
6C
EC
48
58
DA
FC
ENDCHAR

STARTCHAR udieresis
ENCODING 252
SWIDTH 500 0
DWIDTH 7 0
BBX 7 9 0 0
BITMAP
36
36
00
6C
EC
48
58
DA
FC
ENDCHAR

STARTCHAR yacute
ENCODING 253
SWIDTH 458 0
DWIDTH 6 0
BBX 7 12 0 -3
BITMAP
06
08
00
66
B6
34
38
38
30
30
60
F0
ENDCHAR

STARTCHAR thorn
ENCODING 254
SWIDTH 490 0
DWIDTH 7 0
BBX 7 12 0 -3
BITMAP
18
38
18
16
1E
12
32
36
3C
20
60
F0
ENDCHAR

STARTCHAR ydieresis
ENCODING 255
SWIDTH 458 0
DWIDTH 6 0
BBX 7 12 0 -3
BITMAP
36
36
00
66
B6
34
38
38
30
30
60
F0
ENDCHAR
ENDFONT
